<?xml version="1.0" standalone="no"?><!DOCTYPE svg PUBLIC "-//W3C//DTD SVG 1.1//EN" "http://www.w3.org/Graphics/SVG/1.1/DTD/svg11.dtd"><svg t="1587017307106" class="icon" viewBox="0 0 1024 1024" version="1.1" xmlns="http://www.w3.org/2000/svg" p-id="2157" xmlns:xlink="http://www.w3.org/1999/xlink" width="200" height="200"><defs><style type="text/css"></style></defs><path d="M508.8 28.8c-19.2 0-35.2 0-54.4 3.2-41.6 6.4-86.4 16-124.8 32C288 83.2 656 390.4 662.4 400V54.4l-28.8-9.6c-41.6-9.6-83.2-16-124.8-16z" fill="#FA5452" p-id="2158"></path><path d="M851.2 172.8c-12.8-12.8-25.6-25.6-41.6-35.2-35.2-25.6-73.6-48-112-64-41.6-16 3.2 454.4 0 470.4L944 304c-3.2-9.6-9.6-19.2-16-25.6-19.2-41.6-48-73.6-76.8-105.6z" fill="#6467F0" p-id="2159"></path><path d="M956.8 336s-323.2 320-336 329.6h345.6l9.6-28.8c9.6-38.4 16-80 16-121.6 0-19.2 0-35.2-3.2-54.4-3.2-44.8-16-86.4-32-124.8z" fill="#5283F0" p-id="2160"></path><path d="M483.2 704l240 240c9.6-3.2 19.2-9.6 25.6-16 35.2-19.2 70.4-44.8 99.2-76.8 12.8-12.8 25.6-25.6 35.2-41.6 25.6-35.2 48-70.4 64-108.8 3.2 3.2-451.2 6.4-464 3.2z" fill="#00B1FE" p-id="2161"></path><path d="M358.4 624v345.6l28.8 9.6c41.6 9.6 80 16 121.6 16 19.2 0 35.2 0 54.4-3.2 41.6-6.4 83.2-16 124.8-32 0 0-320-326.4-329.6-336z" fill="#66D020" p-id="2162"></path><path d="M323.2 487.616L80 730.816c3.2 9.6 9.6 19.2 16 28.8 19.2 35.2 44.8 67.2 73.6 99.2 12.8 12.8 25.6 25.6 41.6 35.2 35.2 28.8 70.4 48 112 67.2 0 0-3.2-457.6 0-473.6z" fill="#9AD122" p-id="2163"></path><path d="M44.8 391.616a512 512 0 0 0-16 124.8c0 19.2 0 35.2 3.2 54.4 6.4 44.8 16 86.4 32 124.8 0 0 323.2-326.4 336-332.8H54.4c-3.2 6.4-6.4 19.2-9.6 28.8z" fill="#FFC817" p-id="2164"></path><path d="M272 92.8c-38.4 22.4-70.4 48-99.2 76.8L134.4 208c-25.6 35.2-48 70.4-64 108.8 0 0 454.4-3.2 470.4 0L297.6 80c-9.6 3.2-19.2 9.6-25.6 12.8z" fill="#FF7612" p-id="2165"></path></svg>